<svg width="11" height="10" viewBox="0 0 11 10" fill="none" xmlns="http://www.w3.org/2000/svg">
<path fill-rule="evenodd" clip-rule="evenodd" d="M1.78033 0.21967C1.48744 -0.0732233 1.01256 -0.0732233 0.71967 0.21967C0.426777 0.512563 0.426777 0.987437 0.71967 1.28033L4.43934 5L0.71967 8.71967C0.426777 9.01256 0.426777 9.48744 0.71967 9.78033C1.01256 10.0732 1.48744 10.0732 1.78033 9.78033L5.5 6.06066L9.21967 9.78033C9.51256 10.0732 9.98744 10.0732 10.2803 9.78033C10.5732 9.48744 10.5732 9.01256 10.2803 8.71967L6.56066 5L10.2803 1.28033C10.5732 0.987437 10.5732 0.512563 10.2803 0.21967C9.98744 -0.0732233 9.51256 -0.0732233 9.21967 0.21967L5.5 3.93934L1.78033 0.21967Z" fill="#666666"/>
</svg>
