<svg width="166" height="82" viewBox="0 0 166 82" fill="none" xmlns="http://www.w3.org/2000/svg">
<path d="M30.1977 44.6589C29.0662 43.5584 27.7587 42.5607 26.2932 41.6839C24.2633 40.4702 21.6663 39.8531 18.5748 39.8531C16.1488 39.8531 13.7926 40.3108 11.5711 41.2134C9.34179 42.1185 7.3507 43.4838 5.6522 45.2709C3.96146 47.0503 2.58142 49.2539 1.55351 51.8227C0.523016 54.3914 0 57.3819 0 60.7066V60.8532C0 64.1805 0.523016 67.1684 1.55092 69.7371C2.57883 72.3085 3.97181 74.5147 5.68845 76.2915C7.40767 78.076 9.4117 79.4388 11.641 80.3465C13.8625 81.249 16.1954 81.7067 18.5722 81.7067C21.6171 81.7067 24.1908 81.0767 26.2233 79.8373C27.6991 78.9348 29.03 77.8368 30.1951 76.5589V80.9764H42.6569V26.4282H30.1951V44.6589H30.1977ZM29.6151 56.4922C30.0993 57.7599 30.3453 59.1767 30.3453 60.7092V60.8558C30.3453 62.3883 30.0993 63.8051 29.6151 65.0727C29.131 66.3378 28.4811 67.4332 27.681 68.3255C26.8887 69.2074 25.9488 69.8966 24.8873 70.3697C23.8257 70.8428 22.6683 71.0845 21.4437 71.0845C20.219 71.0845 19.059 70.8454 17.9974 70.3697C16.9307 69.894 15.9779 69.2023 15.1597 68.3178C14.3389 67.4281 13.6761 66.3353 13.1945 65.0727C12.7103 63.8051 12.4644 62.3883 12.4644 60.8558V60.7092C12.4644 59.133 12.7103 57.7033 13.1919 56.4588C13.6735 55.2194 14.3363 54.1369 15.1597 53.2446C15.9779 52.3575 16.9307 51.6684 17.9974 51.1927C19.059 50.717 20.219 50.4779 21.4411 50.4779C22.6632 50.4779 23.8231 50.7196 24.8847 51.1927C25.9488 51.6684 26.8887 52.3549 27.6784 53.2369C28.4811 54.1317 29.131 55.2245 29.6151 56.4896V56.4922Z" fill="white"/>
<path d="M71.7689 39.8557C70.2904 39.8557 68.9415 40.0382 67.7582 40.3982C66.5775 40.7582 65.4875 41.2519 64.5139 41.8665C63.5456 42.4784 62.6549 43.1881 61.8678 43.9749C61.5286 44.3144 61.1998 44.6641 60.8813 45.0215V40.5834H48.4196V80.979H60.8813V58.5724C60.8813 56.1322 61.4535 54.2834 62.5824 53.0775C63.7139 51.8689 65.2312 51.2801 67.2145 51.2801C69.1978 51.2801 70.6659 51.8638 71.7248 53.062C72.789 54.268 73.3275 56.1219 73.3275 58.5698V80.9764H85.7893V55.0137C85.7893 50.3493 84.5594 46.6208 82.1334 43.9312C79.6892 41.2236 76.2015 39.8505 71.7689 39.8505V39.8557Z" fill="white"/>
<path d="M120.063 66.6L119.603 67.0243C118.277 68.2483 116.923 69.2357 115.582 69.9582C114.29 70.6576 112.749 71.0099 111.004 71.0099C109.585 71.0099 108.29 70.7476 107.159 70.2282C106.022 69.7088 105.031 68.9888 104.21 68.0837C103.389 67.1786 102.752 66.0986 102.32 64.8695C101.882 63.6327 101.659 62.2802 101.659 60.8505V60.704C101.659 59.3232 101.882 58.0092 102.32 56.7981C102.755 55.5922 103.381 54.5199 104.181 53.6122C104.976 52.7097 105.921 51.9872 106.991 51.4677C108.047 50.9535 109.251 50.6938 110.564 50.6938C112.443 50.6938 114.028 51.0563 115.271 51.7737C116.56 52.5194 117.834 53.5377 119.061 54.8028L119.535 55.2913L127.238 47.0656L126.839 46.6285C124.928 44.5329 122.686 42.8615 120.172 41.6633C117.645 40.4599 114.437 39.8479 110.634 39.8479C107.524 39.8479 104.634 40.4059 102.04 41.5038C99.4483 42.6044 97.1905 44.124 95.3289 46.0242C93.4673 47.9245 91.9862 50.1769 90.9324 52.7226C89.8761 55.2707 89.3401 58.0041 89.3401 60.848V60.9945C89.3401 63.841 89.8761 66.5615 90.9324 69.0865C91.9888 71.609 93.4673 73.8383 95.3315 75.7128C97.1957 77.5899 99.4535 79.0967 102.04 80.1947C104.632 81.2952 107.475 81.8532 110.486 81.8532C114.494 81.8532 117.813 81.1512 120.351 79.7678C122.852 78.4024 125.11 76.6257 127.057 74.4915L127.468 74.0415L120.058 66.5975L120.063 66.6Z" fill="white"/>
<path d="M137.877 0H152.284C159.378 0 165.139 5.72121 165.139 12.7667V27.0735H137.88V0H137.877Z" fill="#0C70F2"/>
</svg>
